<?xml version="1.0" standalone="no"?>
<!DOCTYPE svg PUBLIC "-//W3C//DTD SVG 20010904//EN"
 "http://www.w3.org/TR/2001/REC-SVG-20010904/DTD/svg10.dtd">
<svg version="1.0" xmlns="http://www.w3.org/2000/svg"
 width="414.000000pt" height="414.000000pt" viewBox="0 0 414.000000 414.000000"
 preserveAspectRatio="xMidYMid meet">
<metadata>
Created by potrace 1.14, written by Peter Selinger 2001-2017
</metadata>
<g transform="translate(0.000000,414.000000) scale(0.100000,-0.100000)"
fill="#000000" stroke="none">
<path d="M1009 4136 c-2 -2 -47 -6 -99 -10 -111 -7 -129 -10 -233 -37 -294
-74 -554 -337 -631 -634 -16 -64 -22 -104 -34 -230 -9 -104 -9 -2192 0 -2310
8 -95 14 -135 34 -232 7 -38 40 -121 67 -173 126 -237 355 -415 602 -470 50
-11 61 -13 190 -27 90 -10 2214 -10 2320 -1 135 13 167 18 245 39 75 20 219
87 247 114 8 8 18 15 22 15 8 0 62 47 129 113 98 95 188 251 221 378 23 89 28
125 38 249 10 124 10 2211 0 2315 -27 283 -91 433 -257 608 -144 153 -325 246
-526 272 -28 3 -70 9 -95 12 -46 6 -2233 15 -2240 9z"/>
</g>
</svg>
