<svg width="145" height="126" viewBox="0 0 145 126" fill="none" xmlns="http://www.w3.org/2000/svg">
<path fill-rule="evenodd" clip-rule="evenodd" d="M64.3578 79.1758C66.2498 78.7652 68.1018 78.2278 69.8858 77.5158C73.3631 76.1265 76.5711 74.0438 79.2578 70.8465C80.7258 69.0985 82.3298 66.4705 83.0431 63.8505C83.5804 61.8772 83.7164 59.8438 81.9871 58.6558C78.2258 56.0705 74.6831 57.8172 71.8284 60.9385C67.4391 65.7359 64.4418 73.7145 64.3578 79.1758ZM59.4124 85.7279C61.8191 96.6799 69.2831 104.516 78.7444 109.328C89.3458 114.721 102.44 116.255 113.21 114.319C116.916 113.472 120.483 112.259 123.932 110.676C128.908 108.396 133.608 105.459 138.194 102.187C138.648 101.903 138.786 101.303 138.503 100.849C138.219 100.395 137.62 100.256 137.164 100.539C133.183 102.7 129.146 104.606 124.999 106.141C120.884 107.665 116.688 108.767 112.338 109.268C102.598 110.879 90.8271 109.3 81.3031 104.351C73.4764 100.284 67.1631 93.8799 65.0618 84.8612C67.4418 84.3812 69.7738 83.7332 72.0084 82.8438C76.3351 81.1238 80.3164 78.5238 83.6631 74.5532C86.0111 71.7678 88.5511 67.2598 89.0578 63.1505C89.5098 59.4958 88.5044 56.1319 85.2498 53.9012C78.7618 49.4559 72.4991 51.6799 67.5871 57.0665C62.0511 63.1372 58.4644 73.4238 58.6604 80.0745C56.3044 80.3332 53.9351 80.4812 51.6018 80.6092C41.9471 81.1385 32.3031 78.0292 24.2978 72.0052C16.8716 66.4185 10.855 58.3278 7.50964 48.2878C4.69404 40.2438 4.84724 31.6958 6.16071 23.9812C7.07484 18.6118 8.62844 13.6865 10.268 9.49452C11.7587 5.68252 13.1691 2.50384 14.8003 0.350507C14.8806 0.270507 14.88 0.139817 14.7992 0.0598166C14.718 -0.0201834 14.5868 -0.0201496 14.506 0.0611838C12.2758 1.79718 9.71964 4.44788 7.46017 8.08788C4.92377 12.1732 2.84671 17.3652 1.48151 23.0185C-0.557957 31.4705 -0.647558 41.0225 2.19511 50.0532C5.90817 61.2572 12.6254 70.2745 20.8962 76.5198C29.9791 83.3772 40.9404 86.8865 51.9098 86.3039C54.3924 86.1719 56.9111 86.0065 59.4124 85.7279Z" fill="#040606"/>
<path fill-rule="evenodd" clip-rule="evenodd" d="M136.383 100.484C135.212 101.929 134.024 103.365 132.855 104.824C131.483 106.537 130.108 108.247 128.806 110.02C125.479 114.548 122.483 119.183 119.398 123.791C119.062 124.188 119.114 124.784 119.511 125.12C119.908 125.455 120.503 125.405 120.839 125.007C124.235 121.816 127.724 118.785 131.132 115.52C132.58 114.129 134.008 112.736 135.362 111.253C138.391 107.937 141.126 104.373 143.82 100.839C144.142 100.404 144.6 99.6105 144.766 98.8932C144.951 98.0892 144.895 97.3239 144.635 96.6865C144.391 96.0825 143.922 95.3252 142.842 94.8838C142.355 94.6865 141.276 94.4652 139.764 94.4798C134.782 94.5292 122.639 96.1652 120.124 96.4478L115.23 97.3305C114.951 97.4012 114.54 97.4492 114.159 97.6879C113.65 98.0065 113.082 98.3665 112.86 98.7492C112.692 99.0412 113.111 99.1999 112.886 99.1545C112.712 99.1199 112.94 99.4372 112.976 99.3199C113.108 98.8839 113.211 99.6438 113.37 99.4812C113.764 99.0772 113.382 99.9278 113.812 99.8825C113.968 99.8652 113.727 100.048 113.887 100.068C114.112 100.096 113.675 100.249 113.911 100.375C114.052 100.451 113.683 100.456 113.84 100.599C113.956 100.704 113.52 100.52 113.674 100.721C113.812 100.904 113.499 100.619 113.499 100.619C113.499 100.619 113.563 100.82 113.302 100.343C113.386 100.265 113.391 100.135 113.314 100.051C113.238 99.9665 113.107 99.9612 113.022 100.039C111.875 99.2932 112.858 100.001 112.34 99.9292C112.158 99.9025 112.372 100.08 112.236 100.104C111.56 100.224 112.562 100.391 112.29 100.784C112.18 100.943 112.499 100.796 112.434 100.984C112.319 101.315 112.764 100.776 112.872 101.259C112.928 101.509 113.035 100.989 113.33 101.401C113.547 101.705 113.262 101.541 113.91 101.784C114.37 101.959 115.334 101.676 115.77 101.741L120.59 101.567C122.583 101.428 130.79 100.692 136.383 100.484Z" fill="#040606"/>
</svg>
